<?xml version="1.0" encoding="UTF-8"?>
<svg version="1.1" xmlns="http://www.w3.org/2000/svg" width="128" height="128">
<path d="M0 0 C1.26108078 0.00022659 2.52216156 0.00045319 3.82145691 0.00068665 C5.19778803 0.01600655 6.57411553 0.03165453 7.95043945 0.04760742 C9.35862273 0.05320357 10.76681185 0.05747358 12.17500305 0.06047058 C15.87904014 0.07191799 19.5827236 0.10138383 23.28662109 0.13458252 C27.06709001 0.16528591 30.84761614 0.17897646 34.62817383 0.1940918 C42.04435057 0.22625401 49.46023606 0.27744862 56.8762207 0.34057617 C54.1260434 3.10717945 51.37113252 5.85440737 48.5012207 8.49682617 C47.90825195 9.04467773 47.3152832 9.5925293 46.7043457 10.15698242 C45.4855957 11.27937826 44.2668457 12.40177409 43.0480957 13.52416992 C39.58129693 16.72719053 36.188665 19.97794333 32.8762207 23.34057617 C33.44469727 23.89745117 34.01317383 24.45432617 34.59887695 25.02807617 C39.02802558 29.40546514 43.28322994 33.82898726 47.27075195 38.61401367 C48.9898738 40.46280164 50.81851911 41.8854553 52.8762207 43.34057617 C60.60748712 36.18657764 68.27341837 29.01013748 75.6730957 21.51245117 C78.34065865 18.88272599 81.13780242 16.44349422 83.9855957 14.01245117 C86.62937664 11.67456225 89.07903058 9.16454315 91.52856445 6.62573242 C92.8762207 5.34057617 92.8762207 5.34057617 93.8762207 5.34057617 C93.92250798 13.52020005 93.95807142 21.69976944 93.97984505 29.87949181 C93.99029391 33.67743929 94.00447307 37.47529735 94.02709961 41.27319336 C94.04878891 44.93658963 94.06078102 48.59989974 94.06597519 52.26335526 C94.06967801 53.66284161 94.07690848 55.06232312 94.08768082 56.46177292 C94.10214296 58.41790948 94.10303717 60.37413226 94.10327148 62.33032227 C94.10771271 63.44506927 94.11215393 64.55981628 94.11672974 65.70834351 C93.8762207 68.34057617 93.8762207 68.34057617 91.8762207 70.34057617 C89.18202209 70.49119568 89.18202209 70.49119568 85.70849609 70.35791016 C84.40856216 70.3164537 83.10862823 70.27499725 81.76930237 70.23228455 C81.07065126 70.20727308 80.37200016 70.18226162 79.65217781 70.15649223 C75.92107671 70.03689714 72.18885713 69.99540013 68.45629883 69.9440918 C63.71852443 69.87873173 58.98662569 69.79089276 54.25244141 69.58984375 C34.77868991 68.2769681 34.77868991 68.2769681 17.48120117 75.67700195 C13.25009874 79.6392046 9.56933968 83.92390725 6.17747498 88.62123108 C5.74806107 89.18861496 5.31864716 89.75599884 4.8762207 90.34057617 C4.5462207 90.34057617 4.2162207 90.34057617 3.8762207 90.34057617 C3.8762207 83.74057617 3.8762207 77.14057617 3.8762207 70.34057617 C2.1024707 70.38182617 0.3287207 70.42307617 -1.4987793 70.46557617 C-4.5222168 70.53588867 -4.5222168 70.53588867 -7.1237793 70.34057617 C-9.86949387 67.5948616 -9.38291655 66.03879859 -9.3984375 62.19433594 C-9.40796951 60.9028212 -9.41750153 59.61130646 -9.42732239 58.28065491 C-9.42706097 56.86443047 -9.42612395 55.44820602 -9.42456055 54.03198242 C-9.42844612 52.58471045 -9.4327805 51.13743963 -9.43754578 49.69017029 C-9.44501403 46.65457465 -9.4447125 43.61909529 -9.43945312 40.58349609 C-9.43365911 36.6915421 -9.4505844 32.8000641 -9.4737978 28.90818882 C-9.48852364 25.91848462 -9.48940841 22.92889534 -9.48628807 19.9391613 C-9.48680192 18.50422155 -9.49205154 17.06927547 -9.50209999 15.6343708 C-9.51442271 13.62835436 -9.50574499 11.62224201 -9.49609375 9.61621094 C-9.49672318 8.47418716 -9.4973526 7.33216339 -9.4980011 6.15553284 C-9.1237793 3.34057617 -9.1237793 3.34057617 -7.98324585 1.46963501 C-5.27600528 -0.17418799 -3.15473632 -0.01889064 0 0 Z M28.8762207 26.34057617 C26.7590805 31.68914089 24.93431329 37.11168181 23.1887207 42.59057617 C22.96224854 43.28795898 22.73577637 43.9853418 22.50244141 44.70385742 C21.4288001 48.11584266 20.8762207 50.72510239 20.8762207 54.34057617 C27.22027096 53.69579536 33.2091325 52.37811286 39.3762207 50.77807617 C40.2940332 50.54411133 41.2118457 50.31014648 42.1574707 50.0690918 C44.39819994 49.49723902 46.63769758 48.92099324 48.8762207 48.34057617 C45.57149401 42.95446634 41.53256733 38.53674113 37.1887207 33.96557617 C36.4997168 33.22952148 35.81071289 32.4934668 35.10083008 31.73510742 C32.53148858 28.99536213 32.53148858 28.99536213 29.8762207 26.34057617 C29.5462207 26.34057617 29.2162207 26.34057617 28.8762207 26.34057617 Z " fill="#86C0CC" transform="translate(22.123779296875,18.659423828125)"/>
</svg>
