<svg
  xmlns="http://www.w3.org/2000/svg"
  version="1.1"
  xmlns:xlink="http://www.w3.org/1999/xlink"
  xmlns:svgjs="http://svgjs.dev/svgjs"
  width="1500"
  height="1388"
  viewBox="0 0 1500 1388"
>
  <g transform="matrix(1,0,0,1,-0.9127205316640357,-2.238709677419365)">
    <svg
      viewBox="0 0 268 248"
      data-background-color="#ffffff"
      preserveAspectRatio="xMidYMid meet"
      height="1388"
      width="1500"
      xmlns="http://www.w3.org/2000/svg"
      xmlns:xlink="http://www.w3.org/1999/xlink"
    >
      <g
        id="tight-bounds"
        transform="matrix(1,0,0,1,0.16307273499063513,0.4000000000000057)"
      >
        <svg
          viewBox="0 0 267.67385453001873 247.2"
          height="247.2"
          width="267.67385453001873"
        >
          <g>
            <svg
              viewBox="0 0 395.52 365.26744149767205"
              height="247.2"
              width="267.67385453001873"
            >
              <g transform="matrix(1,0,0,1,0,271.5235707781645)">
                <svg
                  viewBox="0 0 395.52 93.7438707195075"
                  height="93.7438707195075"
                  width="395.52"
                >
                  <g id="textblocktransform">
                    <svg
                      viewBox="0 0 395.52 93.7438707195075"
                      height="93.7438707195075"
                      width="395.52"
                      id="textblock"
                    >
                      <g>
                        <svg
                          viewBox="0 0 395.52 93.7438707195075"
                          height="93.7438707195075"
                          width="395.52"
                        >
                          <g transform="matrix(1,0,0,1,0,0)">
                            <svg
                              width="395.52"
                              viewBox="2.25 -25.25 129.94 30.8"
                              height="93.7438707195075"
                              data-palette-color="#113f67"
                            >
                              <path
                                d="M2.25-11.5L2.25-11.5Q2.25-15.05 2.98-17.35 3.7-19.65 5.3-20.95 6.9-22.25 9.43-22.75 11.95-23.25 15.55-23.25L15.55-23.25Q17.4-23.25 19.13-23.13 20.85-23 22.65-22.7L22.65-22.7Q24.15-22.45 24.58-22.03 25-21.6 25-20.85L25-20.85 25-19.6Q24.05-20.05 22.35-20.38 20.65-20.7 18.85-20.85 17.05-21 15.65-21L15.65-21Q12.15-21 10.08-20.18 8-19.35 7.1-17.3 6.2-15.25 6.2-11.5L6.2-11.5Q6.2-7.75 7.05-5.68 7.9-3.6 10.03-2.75 12.15-1.9 15.9-1.9L15.9-1.9Q17.25-1.9 18.95-2.05 20.65-2.2 22.25-2.53 23.85-2.85 25-3.2L25-3.2 25-2.05Q25-1.4 24.55-0.93 24.1-0.45 22.55-0.25L22.55-0.25Q20.8 0.1 19.05 0.23 17.3 0.35 15.45 0.35L15.45 0.35Q11.75 0.35 9.2-0.18 6.65-0.7 5.13-1.98 3.6-3.25 2.93-5.55 2.25-7.85 2.25-11.5ZM38.05 5.55L38.05 5.55Q35.8 5.55 33.8 5.33 31.8 5.1 30.55 4.65 29.3 4.2 29.3 3.65L29.3 3.65 29.3 2.4Q30.1 2.85 31.42 3.15 32.75 3.45 34.25 3.63 35.75 3.8 37.15 3.8L37.15 3.8Q39.55 3.8 41.07 3.15 42.6 2.5 43.37 1.05 44.15-0.4 44.15-2.6L44.15-2.6 44.15-5.3Q43.7-4.3 42.7-3.6 41.7-2.9 40.22-2.6 38.75-2.3 36.8-2.3L36.8-2.3Q33.25-2.3 31.57-3.3 29.9-4.3 29.42-6.15 28.95-8 28.95-10.45L28.95-10.45 28.95-18Q28.95-18.75 29.02-19.18 29.1-19.6 29.37-19.78 29.65-19.95 30.3-19.95L30.3-19.95 32.5-19.95Q32.5-18.65 32.5-17.48 32.5-16.3 32.5-15.18 32.5-14.05 32.5-12.9 32.5-11.75 32.5-10.45L32.5-10.45Q32.5-7.6 33.27-6.25 34.05-4.9 35.37-4.55 36.7-4.2 38.3-4.2L38.3-4.2Q39.9-4.2 41.2-4.63 42.5-5.05 43.3-6.3 44.1-7.55 44.1-10.05L44.1-10.05 44.1-19.95 46.25-19.95Q47-19.95 47.32-19.73 47.65-19.5 47.65-18.45L47.65-18.45 47.65-3Q47.65 1.45 45.32 3.5 43 5.55 38.05 5.55ZM56.55 0L54.24 0Q53.09 0 53.09-1.2L53.09-1.2 53.09-18.5Q54.55-19.15 56.92-19.65 59.3-20.15 62.39-20.15L62.39-20.15Q65.3-20.15 67.09-19.75 68.89-19.35 69.84-18.55 70.8-17.75 71.12-16.48 71.44-15.2 71.44-13.4L71.44-13.4 71.44-1.5Q71.44-0.95 71.32-0.6 71.19-0.25 70.87-0.13 70.55 0 69.89 0L69.89 0 67.94 0 67.94-14.1Q67.94-16.1 66.64-17.05 65.34-18 62.39-18L62.39-18Q61.45-18 60.32-17.85 59.2-17.7 58.2-17.43 57.2-17.15 56.55-16.7L56.55-16.7 56.55 0ZM86.34 0.3L86.34 0.3Q84.04 0.3 82.22-0.05 80.39-0.4 79.07-1.45 77.74-2.5 77.04-4.55 76.34-6.6 76.34-9.95L76.34-9.95Q76.34-13.3 77.04-15.35 77.74-17.4 79.07-18.45 80.39-19.5 82.22-19.85 84.04-20.2 86.34-20.2L86.34-20.2Q88.59-20.2 90.42-19.85 92.24-19.5 93.54-18.45 94.84-17.4 95.54-15.35 96.24-13.3 96.24-9.95L96.24-9.95Q96.24-6.55 95.54-4.5 94.84-2.45 93.54-1.43 92.24-0.4 90.42-0.05 88.59 0.3 86.34 0.3ZM86.34-1.65L86.34-1.65Q88.34-1.65 89.77-2.25 91.19-2.85 91.94-4.6 92.69-6.35 92.69-9.95L92.69-9.95Q92.69-13.55 91.94-15.3 91.19-17.05 89.77-17.65 88.34-18.25 86.34-18.25L86.34-18.25Q84.34-18.25 82.92-17.65 81.49-17.05 80.72-15.3 79.94-13.55 79.94-9.95L79.94-9.95Q79.94-6.35 80.72-4.6 81.49-2.85 82.92-2.25 84.34-1.65 86.34-1.65ZM106.44 0.15L106.44 0.15Q104.74 0.15 103.79-0.28 102.84-0.7 102.39-1.75 101.94-2.8 101.94-4.6L101.94-4.6 101.94-18 100.04-18 100.04-19.95 101.94-19.95 101.94-23.55Q101.94-24.3 102.06-24.68 102.19-25.05 102.49-25.15 102.79-25.25 103.34-25.25L103.34-25.25 105.49-25.25Q105.49-25.15 105.47-24.83 105.44-24.5 105.44-23.9L105.44-23.9 105.44-19.95 110.09-19.95 110.09-18 105.44-18 105.44-5Q105.44-3.05 105.84-2.25 106.24-1.45 107.64-1.45L107.64-1.45Q108.19-1.45 108.79-1.55 109.39-1.65 109.64-1.75L109.64-1.75 109.64-0.2Q109.34-0.15 108.49 0 107.64 0.15 106.44 0.15ZM123.09 0.3L123.09 0.3Q120.19 0.3 118.21-0.1 116.24-0.5 115.06-1.6 113.89-2.7 113.36-4.67 112.84-6.65 112.84-9.8L112.84-9.8Q112.84-13.4 113.74-15.7 114.64-18 116.94-19.1 119.24-20.2 123.39-20.2L123.39-20.2Q126.59-20.2 128.51-19.35 130.44-18.5 131.31-16.75 132.19-15 132.19-12.2L132.19-12.2 132.19-9.35 118.09-9.35Q118.09-9.95 118.39-10.38 118.69-10.8 119.49-10.8L119.49-10.8 129.04-10.8 128.99-12.25Q128.94-15.35 127.66-16.75 126.39-18.15 123.24-18.15L123.24-18.15Q120.59-18.15 119.09-17.35 117.59-16.55 116.99-14.75 116.39-12.95 116.39-9.85L116.39-9.85Q116.39-6.55 117.06-4.83 117.74-3.1 119.34-2.48 120.94-1.85 123.69-1.85L123.69-1.85Q124.64-1.85 125.86-1.93 127.09-2 128.34-2.1 129.59-2.2 130.56-2.38 131.54-2.55 131.94-2.75L131.94-2.75 131.94-2.15Q131.94-1.65 131.66-1.2 131.39-0.75 130.54-0.45L130.54-0.45Q129.44 0 127.56 0.15 125.69 0.3 123.09 0.3Z"
                                opacity="1"
                                transform="matrix(1,0,0,1,0,0)"
                                fill="#113f67"
                                class="wordmark-text-0"
                                data-fill-palette-color="primary"
                                id="text-0"
                              ></path>
                            </svg>
                          </g>
                        </svg>
                      </g>
                    </svg>
                  </g>
                </svg>
              </g>
              <g transform="matrix(1,0,0,1,84.12889263489618,0)">
                <svg
                  viewBox="0 0 227.26221473020763 227.26221473020763"
                  height="227.26221473020763"
                  width="227.26221473020763"
                >
                  <g><svg></svg></g>
                  <g id="icon-0">
                    <svg
                      viewBox="0 0 227.26221473020763 227.26221473020763"
                      height="227.26221473020763"
                      width="227.26221473020763"
                    >
                      <g>
                        <path
                          d="M0 113.631c0-62.757 50.874-113.631 113.631-113.631 62.757 0 113.631 50.874 113.631 113.631 0 62.757-50.874 113.631-113.631 113.631-62.757 0-113.631-50.874-113.631-113.631zM113.631 218.808c58.088 0 105.177-47.089 105.177-105.177 0-58.088-47.089-105.177-105.177-105.177-58.088 0-105.177 47.089-105.177 105.177 0 58.088 47.089 105.177 105.177 105.177z"
                          data-fill-palette-color="accent"
                          fill="#87c0cd"
                          stroke="transparent"
                        ></path>
                        <ellipse
                          rx="112.49479629145277"
                          ry="112.49479629145277"
                          cx="113.63110736510382"
                          cy="113.63110736510382"
                          fill="#87c0cd"
                          stroke="transparent"
                          stroke-width="0"
                          fill-opacity="1"
                          data-fill-palette-color="accent"
                        ></ellipse>
                      </g>
                      <g
                        transform="matrix(1,0,0,1,47.93656295212202,56.324027469859445)"
                      >
                        <svg
                          viewBox="0 0 131.3890888259636 114.61415979048874"
                          height="114.61415979048874"
                          width="131.3890888259636"
                        >
                          <g>
                            <svg
                              xmlns="http://www.w3.org/2000/svg"
                              xmlns:xlink="http://www.w3.org/1999/xlink"
                              version="1.1"
                              x="0"
                              y="0"
                              viewBox="2.5 8.563999999999997 95 82.87100000000001"
                              enable-background="new 0 0 100 100"
                              xml:space="preserve"
                              height="114.61415979048874"
                              width="131.3890888259636"
                              class="icon-dxe-0"
                              data-fill-palette-color="quaternary"
                              id="dxe-0"
                            >
                              <path
                                d="M59.096 50L39.894 28.776 63.048 8.564H6.543A4.043 4.043 0 0 0 2.5 12.606V69.202A4.043 4.043 0 0 0 6.543 73.244H14.628V91.435L32.819 73.244H93.457A4.043 4.043 0 0 0 97.5 69.202V13.383zM28.776 59.434L37.367 30.798 56.948 52.527z"
                                fill="#ffffff"
                                data-fill-palette-color="quaternary"
                              ></path>
                            </svg>
                          </g>
                        </svg>
                      </g>
                    </svg>
                  </g>
                </svg>
              </g>
              <g></g>
            </svg>
          </g>
          <defs></defs>
        </svg>
        <rect
          width="267.67385453001873"
          height="247.2"
          fill="none"
          stroke="none"
          visibility="hidden"
        ></rect>
      </g>
    </svg>
  </g>
</svg>
