
<svg xmlns="http://www.w3.org/2000/svg" xmlns:xlink="http://www.w3.org/1999/xlink" version="1.1" width="3187.5" 
	height="1125" viewBox="0 0 3187.5 1125">
	<g transform="scale(9.375) translate(10, 10)">
		<defs id="SvgjsDefs2354"></defs><g id="SvgjsG2355" featureKey="7KWit6-0" transform="matrix(0.3424559467337198,0,0,0.3424559467337198,-1.3683870295384977,-1.3683870295384977)" fill="#1e56a0"><g xmlns="http://www.w3.org/2000/svg"><g><defs><rect id="b" x="8.5" y="8.5" transform="matrix(0.719 -0.6951 0.6951 0.719 -62.0973 146.4242)" width="283" height="283"></rect></defs><clipPath id="a"><use xmlns:xlink="http://www.w3.org/1999/xlink" xlink:href="#b" style="" overflow="visible"></use></clipPath><g style="clip-path:url(#a);"><path d="M67.2,155.9l-59.3-1c-2.3,0-4,1.9-3.9,4c1.4,22.6,7.8,43.7,18.3,62.4c1,1.7,3,2.5,4.8,1.7l57.5-24.6     c3.7-1.6,8.1-1.3,11.5,1.1c4.4,3.2,5.8,9.2,3.6,13.9l-26.7,57c-0.8,1.7-0.2,3.9,1.5,4.9c18.3,11,39.2,18.2,61.7,20.4     c2.2,0.2,4.1-1.5,4.2-3.8l1-59.3C142,190.9,108.9,156.6,67.2,155.9z"></path><path d="M144.1,67.2l1-59.3c0-2.3-1.9-4-4-3.9c-22.6,1.4-43.7,7.8-62.4,18.3c-1.7,1-2.5,3-1.7,4.8l24.6,57.5     c1.6,3.7,1.3,8.1-1.1,11.5c-3.2,4.4-9.1,5.8-13.9,3.6L29.7,72.9c-1.7-0.8-3.9-0.2-4.9,1.5c-11,18.3-18.2,39.2-20.4,61.7     c-0.2,2.2,1.5,4.1,3.8,4.2l59.3,1C109.1,142,143.4,108.9,144.1,67.2z"></path><path d="M232.8,144.1l59.3,1c2.3,0,4-1.9,3.9-4c-1.4-22.6-7.8-43.7-18.3-62.4c-1-1.7-3-2.5-4.8-1.7l-57.5,24.6     c-3.7,1.6-8.1,1.3-11.5-1.1c-4.4-3.2-5.8-9.1-3.6-13.9L227,29.8c0.8-1.7,0.2-3.9-1.5-4.9c-18.2-11.1-39.2-18.3-61.7-20.4     c-2.2-0.2-4.1,1.5-4.2,3.8l-1,59.3C158,109.1,191.1,143.4,232.8,144.1z"></path><path d="M198.2,215.1c-2.1-4.9-0.6-10.7,4.1-13.8c3.4-2.4,7.8-2.5,11.5-0.7l56.6,26.5c1.7,0.8,3.9,0.2,4.9-1.5     c11-18.3,18.2-39.2,20.3-61.7c0.2-2.2-1.5-4.1-3.8-4.2l-59.3-1c-41.7-0.7-76,32.4-76.7,74.1l-1,59.3c0,2.3,1.9,4,4,3.9     c22.6-1.4,43.7-7.8,62.4-18.3c1.7-1,2.5-3,1.7-4.8L198.2,215.1z"></path></g></g></g></g><g id="SvgjsG2356" featureKey="ewgXDI-0" transform="matrix(2.983045015025947,0,0,2.983045015025947,117.91186905845252,3.641402414870889)" fill="#163172"><path d="M6.14 9.42 c1.9 0 3.5 0.8 4.48 2.48 l-2.4 1.14 c-0.52 -0.44 -0.94 -0.84 -2.04 -0.84 c-1.2 0 -2.42 0.92 -2.42 2.62 c0 1.68 1.22 2.56 2.42 2.56 c1.1 0 1.52 -0.36 2.04 -0.8 l2.44 1.14 c-1.02 1.68 -2.58 2.44 -4.52 2.44 c-2.32 0 -5.44 -1.66 -5.44 -5.34 c0 -3.62 3.12 -5.4 5.44 -5.4 z M20.32 9.56 l3.14 0 l-6.36 14.24 l-3.16 0 l1.92 -4.16 l-4.5 -10.08 l3.14 0 l2.92 6.68 z M31.160000000000004 9.44 c1.94 0 3.92 1.3 3.92 4.6 l0 5.96 l-3.16 0 l0 -5.74 c0 -1.58 -0.54 -2.08 -1.54 -2.08 c-1.42 0 -2.24 1.38 -2.44 1.98 l0 5.84 l-3.16 0 l0 -10.4 l3.16 0 l0 1.8 c0.2 -0.5 1.26 -1.96 3.22 -1.96 z M42.160000000000004 9.42 c2.36 0 5.48 1.78 5.48 5.42 c0 3.66 -3.12 5.36 -5.48 5.36 s-5.48 -1.7 -5.48 -5.36 c0 -3.64 3.12 -5.42 5.48 -5.42 z M42.160000000000004 12.2 c-1.2 0 -2.42 0.92 -2.42 2.64 c0 1.66 1.22 2.58 2.42 2.58 s2.44 -0.92 2.44 -2.58 c0 -1.72 -1.24 -2.64 -2.44 -2.64 z M54.42 17.36 c0.56 0 0.96 -0.08 1.4 -0.2 l0 2.62 c-0.44 0.2 -1.16 0.34 -2.22 0.34 c-1.74 0 -3.2 -0.58 -3.2 -3.78 l0 -4.14 l-1.46 0 l0 -2.6 l1.46 0 l0 -2.44 l3.16 0 l0 2.44 l2.22 0 l0 2.6 l-2.22 0 l0 4.14 c0 0.46 0.12 1.02 0.86 1.02 z M62.660000000000004 9.42 c2.36 0 5.66 1.78 5 6.48 l-7.26 0 c0.36 1.08 1.3 1.64 2.56 1.64 c1.28 0 1.68 -0.28 2.4 -0.58 l1.74 1.68 c-0.92 0.9 -2.16 1.56 -4.26 1.56 c-2.58 0 -5.66 -1.78 -5.66 -5.36 c0 -3.64 3.12 -5.42 5.48 -5.42 z M62.660000000000004 12.120000000000001 c-0.9 0 -1.82 0.52 -2.22 1.56 l4.42 0 c-0.32 -1.04 -1.3 -1.56 -2.2 -1.56 z"></path></g>
	</g>
</svg>
	